<?xml version="1.0" encoding="UTF-8" standalone="no"?>
<svg
   xmlns:dc="http://purl.org/dc/elements/1.1/"
   xmlns:cc="http://creativecommons.org/ns#"
   xmlns:rdf="http://www.w3.org/1999/02/22-rdf-syntax-ns#"
   xmlns:svg="http://www.w3.org/2000/svg"
   xmlns="http://www.w3.org/2000/svg"
   xmlns:sodipodi="http://sodipodi.sourceforge.net/DTD/sodipodi-0.dtd"
   xmlns:inkscape="http://www.inkscape.org/namespaces/inkscape"
   width="1000"
   height="170"
   viewBox="0 0 1000 170"
   version="1.1"
   id="svg11"
   sodipodi:docname="Fremantle-logo-dark.svg"
   inkscape:version="0.92.3 (2405546, 2018-03-11)">
  <metadata
     id="metadata15">
    <rdf:RDF>
      <cc:Work
         rdf:about="">
        <dc:format>image/svg+xml</dc:format>
        <dc:type
           rdf:resource="http://purl.org/dc/dcmitype/StillImage" />
      </cc:Work>
    </rdf:RDF>
  </metadata>
  <sodipodi:namedview
     pagecolor="#ffffff"
     bordercolor="#666666"
     borderopacity="1"
     objecttolerance="10"
     gridtolerance="10"
     guidetolerance="10"
     inkscape:pageopacity="0"
     inkscape:pageshadow="2"
     inkscape:window-width="1366"
     inkscape:window-height="705"
     id="namedview13"
     showgrid="false"
     inkscape:zoom="1.765"
     inkscape:cx="100"
     inkscape:cy="17"
     inkscape:window-x="-8"
     inkscape:window-y="-8"
     inkscape:window-maximized="1"
     inkscape:current-layer="svg11" />
  <!-- Generator: Sketch 51.2 (57519) - http://www.bohemiancoding.com/sketch -->
  <title
     id="title2">fremantle-logo-light</title>
  <desc
     id="desc4">Created with Sketch.</desc>
  <defs
     id="defs6" />
  <g
     id="Page-1"
     transform="scale(5)"
     style="fill:none;fill-rule:evenodd;stroke:none;stroke-width:1">
    <g
       id="fremantle-logo-light"
       style="fill:#000000;fill-rule:nonzero">
      <path
         d="m 44.474213,20.413655 c 1.205626,0 1.674481,0.273092 1.674481,0.546184 0,1.09237 -2.746149,2.048193 -4.688547,2.048193 -0.669792,0 -1.339584,-0.06827 -1.942398,-0.273092 1.138648,-1.365462 3.348962,-2.321285 4.956464,-2.321285 z M 177.89685,20.277108 c 0.93771,0 1.40657,0.136547 1.40657,0.546185 0,0.819277 -2.07636,3.004016 -7.36772,5.393574 -0.067,-0.136546 -0.067,-0.341365 -0.067,-0.409638 0,-2.935743 3.48292,-5.530121 6.02813,-5.530121 z M 167.71601,2.935743 c 0.26791,0 0.46885,0.068273 0.53583,0.2048192 -0.13396,1.8433735 -1.33958,4.369478 -2.88011,6.6907631 l -6.09511,0.3413657 c 1.74146,-3.1405625 5.4923,-7.236948 8.43939,-7.236948 z M 98.727395,31.064257 c 2.612195,0 5.291355,-0.751004 7.702615,-2.253012 0.26791,1.433166 0.93771,1.7751 1.6075,1.7751 0.87073,0 1.40656,-0.682731 1.40656,-1.7751 0,-0.546185 -0.067,-1.7751 -0.26792,-2.935743 -0.20093,-0.819277 -0.66979,-1.228916 -1.33958,-1.228916 -0.60281,0 -0.93771,0.136546 -1.9424,0.955824 -1.80844,1.365461 -4.48761,2.389558 -6.630942,2.389558 -0.669792,0 -0.87073,-0.204819 -0.87073,-0.409639 0,-1.843373 3.482922,-6.008032 8.439382,-6.008032 1.07167,0 1.9424,0.204819 3.08105,0.819277 0.40187,0.273093 0.73677,0.409639 1.13864,0.409639 0.73678,0 1.33959,-0.477912 1.33959,-1.297189 0,-0.614458 -0.40188,-1.092369 -1.00469,-1.570281 -1.2726,-0.955823 -2.94709,-1.433735 -4.75553,-1.433735 -2.74614,0 -5.35833,1.024096 -7.568649,2.86747 -2.143336,1.7751 -3.884796,4.232932 -3.884796,6.690763 0,2.116466 1.540522,3.004016 3.5499,3.004016 z m 15.673145,2.048193 c 0.26791,0 0.93771,0 1.74146,-1.024097 1.20562,-1.502008 3.08104,-3.959839 5.1574,-6.076305 2.54521,-2.594946 5.02344,-4.779116 5.76021,-4.779116 0.13396,0 0.20094,0 0.26792,0.341365 l 0.53583,3.208835 c 0.3349,1.775101 0.80375,3.686747 1.40657,4.642571 0.40187,0.614458 0.93771,1.024096 1.74146,1.024096 0.80375,0 1.47354,-0.546185 1.47354,-1.433735 0,-0.409638 -0.20094,-0.88755 -0.40188,-1.433735 -0.73677,-1.7751 -1.13864,-3.959839 -1.54052,-6.485944 -0.40187,-2.66265 -1.33958,-3.277108 -2.81313,-3.277108 -2.47823,0 -7.0998,3.890997 -10.85063,8.807229 l 0.26792,-4.164659 c 0.067,-1.024096 -0.60282,-1.433735 -1.27261,-1.433735 -0.73677,0 -1.33959,0.409639 -1.47354,1.297189 l -1.20563,7.783133 c -0.13396,0.955823 -0.13396,1.297188 -0.13396,1.502008 0,1.092369 0.66979,1.502008 1.33959,1.502008 z m 30.60951,-4.574866 c -1.74146,1.092938 -3.34896,1.912215 -4.82251,1.912215 -1.20562,0 -1.74146,-0.88755 -1.74146,-2.321285 0,-1.502008 0.73677,-4.506024 1.07167,-5.666667 0.93771,-3.277108 1.54052,-5.325301 2.54521,-8.465863 l 12.12324,-0.682731 c -1.33958,3.277108 -2.00938,6.554217 -2.00938,9.48996 v 0.477911 c -2.81312,2.321286 -5.22438,4.164659 -7.16677,5.25646 z m -52.109849,0.06884 c -0.736772,-2.253012 -1.004689,-3.277109 -1.607502,-6.144579 -0.602813,-3.004016 -1.138647,-4.983935 -3.884795,-4.983935 -3.616879,0 -7.233758,3.891566 -11.587408,9.489959 l -0.669793,-2.66265 c -0.669792,-2.594947 -1.406564,-4.506024 -4.219692,-4.506024 -2.210314,0 -5.023442,1.570281 -9.243134,5.870917 l 0.736771,-4.232363 c 0.06698,-0.477912 0.133959,-1.024096 0.133959,-1.228916 0,-0.682731 -0.401876,-1.160642 -1.272606,-1.160642 -0.80375,0 -1.272605,0.273092 -2.411252,1.160642 -5.090422,3.95984 -11.45345,8.60241 -17.749498,8.60241 -2.076356,0 -3.148024,-0.88755 -3.148024,-2.526104 0,-0.341366 0.06698,-0.682731 0.200938,-1.09237 1.071668,0.409639 2.210315,0.546185 3.148024,0.546185 4.152713,0 7.90355,-2.184739 7.90355,-4.983936 0,-1.97992 -1.74146,-3.208835 -4.487609,-3.208835 -3.817817,0 -6.764903,2.116466 -8.238446,4.096385 -1.942398,-1.024096 -3.48292,-1.297189 -5.090422,-1.297189 -4.152713,0 -7.166778,1.706828 -11.051574,6.076306 0.736771,-4.165228 0.87073,-6.895583 0.87073,-8.261044 0,-1.024097 -0.669792,-1.502008 -1.339585,-1.502008 -0.267917,0 -0.736771,0.06827 -1.406564,0.204819 L 8.640322,18.842805 12.659076,6.9638554 33.221701,5.939759 c 1.205627,-0.068273 1.607502,-0.8192771 1.607502,-1.502008 0,-0.8875502 -0.669792,-1.4337349 -1.607502,-1.4337349 L 3.750837,4.0281124 c -1.406564,0.068273 -2.210315,0.7510041 -2.210315,1.7751005 0,1.0923694 0.669793,1.6385542 2.210315,1.5702811 L 8.77428,7.1686747 4.956463,19.457831 1.808439,20.208835 C 0.602813,20.481928 0,21.096385 0,21.983936 c 0,1.092369 0.669792,1.570281 1.540522,1.570281 0.267917,0 0.870731,-0.06827 1.205627,-0.137115 l 1.071667,-0.204251 -2.344273,7.305221 c -0.267917,0.88755 -0.334896,1.228916 -0.334896,1.570281 0,1.09237 0.87073,1.365462 1.406564,1.365462 0.535834,0 1.205626,-0.204819 1.607502,-1.297188 l 3.281982,-9.69478 10.448761,-2.321285 c -0.133958,3.004016 -0.937709,7.851406 -1.406564,10.650034 -0.133958,0.819846 -0.200938,1.160642 -0.200938,1.57085 0,0.819277 0.535834,1.29662 1.406564,1.29662 0.669793,0 1.071668,-0.40907 1.540523,-1.023528 2.679169,-3.823293 7.367716,-9.148594 12.324179,-9.148594 1.205627,0 2.411253,0.341365 3.5499,0.819277 -0.334896,0.751004 -0.468855,1.638554 -0.468855,2.389558 0,3.481928 2.076357,5.461848 5.961152,5.461848 4.621568,0 10.58272,-2.116466 18.218353,-8.261045 -0.267917,1.433735 -0.669793,3.345382 -1.138647,5.393575 -0.133959,0.477911 -0.200938,0.955254 -0.200938,1.228915 0,0.955824 0.602813,1.433166 1.339585,1.433166 0.736771,0 1.272605,-0.340796 2.411252,-1.433166 1.138647,-1.228915 2.210315,-2.321285 3.616879,-3.618474 2.411252,-2.253012 4.085733,-3.686747 5.425318,-3.686747 0.803751,0 1.205626,0.614458 1.875419,3.140563 0.87073,3.208835 1.339584,4.574297 2.880107,4.574297 1.406564,0 1.942398,-0.546185 4.085733,-3.140562 3.750837,-4.437751 6.229069,-6.82731 7.635633,-6.82731 0.468855,0 0.669793,0.273093 0.87073,1.09237 l 1.004689,4.096385 c 0.267917,1.160643 0.669792,2.594378 1.138647,3.481928 0.468854,0.88755 1.138647,1.365462 2.009377,1.365462 0.87073,0 1.406564,-0.614458 1.406564,-1.297189 0,-0.273092 -0.06698,-0.477912 -0.267917,-1.092369 z M 144.2063,7.5100402 c 0.26791,-0.7510041 0.46885,-1.3654619 0.46885,-1.8433735 0,-0.8192771 -0.60281,-1.2971888 -1.33958,-1.2971888 -0.87073,0 -1.60751,0.2730924 -2.41126,2.6626506 l -1.33958,4.0963855 -6.56397,0.273092 c -1.13864,0.06827 -1.94239,0.546185 -1.94239,1.570282 0,1.160642 0.87073,1.570281 2.07635,1.502008 l 5.42532,-0.273093 c -0.66979,2.048193 -1.74146,5.666667 -2.54521,8.807229 -0.46886,1.7751 -0.93771,3.822724 -0.93771,5.939759 0,3.072289 1.47354,5.052209 4.42063,5.052209 2.74615,0 5.89417,-1.843373 8.84126,-3.959839 1.6075,-1.160643 3.215,-2.389559 4.35365,-3.413655 1.20562,3.75502 4.35365,5.598394 8.43938,5.598394 3.34896,0 6.36303,-0.887551 9.31012,-2.184739 1.54052,1.638554 4.55458,2.116466 7.0998,2.116466 7.16677,0 15.20428,-3.686748 20.83054,-7.578314 1.20562,-0.819277 1.6075,-1.365462 1.6075,-1.979919 0,-0.955824 -0.73677,-1.365462 -1.40656,-1.365462 -0.46886,0 -0.93771,0.204819 -1.9424,0.819277 -5.55928,3.413654 -12.79304,6.827309 -19.22304,6.827309 -1.40657,0 -2.61219,-0.136546 -3.48292,-0.409639 5.29136,-2.594377 8.23844,-4.915662 8.23844,-7.920247 0,-2.457263 -2.27729,-3.139993 -4.15271,-3.139993 -4.68855,0 -9.17616,4.028112 -9.17616,8.738955 0,0.273093 0,0.614458 0.13396,1.160643 -2.07635,0.682731 -4.35365,1.365462 -7.43469,1.365462 -4.15271,0 -5.96115,-3.072289 -5.96115,-6.485944 0,-3.072289 0.87073,-6.212851 2.21031,-9.080321 l 5.4923,-0.341366 c -0.80375,1.09237 -1.67448,1.97992 -2.34428,2.662651 -1.47354,1.502008 -1.74146,1.911646 -1.74146,2.66265 0,0.614458 0.53584,1.09237 1.20563,1.09237 1.13865,0 2.14334,-1.228916 2.88011,-1.911647 1.20562,-1.228915 2.61219,-2.867469 3.95177,-4.64257 l 11.72137,-0.614458 c 0.80375,-0.06827 1.67448,-0.409638 1.67448,-1.502008 0,-0.9558231 -0.80375,-1.2971885 -1.47354,-1.2971885 h -0.20094 l -9.84595,0.4779116 c 1.33959,-2.253012 2.2773,-4.5742972 2.2773,-6.5542169 C 171.39987,1.2289157 170.19424,0 167.98392,0 c -5.49229,0 -9.84594,5.4618474 -12.39115,10.309237 l -12.52512,0.614458 z"
         id="Logo-light"
         inkscape:connector-curvature="0" />
    </g>
  </g>
</svg>
