<?xml version="1.0" encoding="UTF-8" standalone="no"?>
<svg
   id="Layer_1"
   viewBox="0 0 200 200"
   version="1.1"
   width="200"
   height="200"
   xmlns="http://www.w3.org/2000/svg"
   xmlns:svg="http://www.w3.org/2000/svg">
  <defs
     id="defs9" />
  <path
     fill="#e0001c"
     d="M 100,200 C 155.23334,200 200,155.25 200,100.03333 200,44.816667 155.23334,0 100,0 44.766667,0 0,44.783334 0,100.03333 0,155.28334 44.750001,200 100,200"
     id="path1" />
  <path
     fill="#ffffff"
     d="M 104.88333,132.83334 H 78.883334 L 104.88333,94.350001 Z M 145.13334,132.75 H 131.56667 V 17.3 C 131.56667,16.35 130.96667,15.6 130.08334,15.316667 129.21667,15.05 128.28334,15.366667 127.76667,16.15 L 33.883334,155.01667 C 33.45,155.63334 33.416667,156.45 33.8,157.13334 34.15,157.81667 34.85,158.25 35.616667,158.25 H 104.9 V 173.9 C 104.9,174.98334 105.85,175.95 106.96667,175.95 H 129.5 C 130.63334,175.95 131.58334,174.98334 131.58334,173.9 V 158.25 H 145.15 C 146.33334,158.25 147.21667,157.33334 147.21667,156.15 V 134.83334 C 147.21667,133.68334 146.33334,132.75 145.15,132.75"
     id="path2" />
</svg>
